<?xml version="1.0" encoding="UTF-8" standalone="no"?>
<svg
   xmlns:dc="http://purl.org/dc/elements/1.1/"
   xmlns:cc="http://creativecommons.org/ns#"
   xmlns:rdf="http://www.w3.org/1999/02/22-rdf-syntax-ns#"
   xmlns:svg="http://www.w3.org/2000/svg"
   xmlns="http://www.w3.org/2000/svg"
   xmlns:sodipodi="http://sodipodi.sourceforge.net/DTD/sodipodi-0.dtd"
   xmlns:inkscape="http://www.inkscape.org/namespaces/inkscape"
   viewBox="0 0 182.34093 182.21851"
   version="1.1"
   id="svg37"
   sodipodi:docname="jira.svg"
   width="182.34093"
   height="182.21851"
   inkscape:version="0.92.3 (2405546, 2018-03-11)">
  <metadata
     id="metadata41">
    <rdf:RDF>
      <cc:Work
         rdf:about="">
        <dc:format>image/svg+xml</dc:format>
        <dc:type
           rdf:resource="http://purl.org/dc/dcmitype/StillImage" />
        <dc:title>jira</dc:title>
      </cc:Work>
    </rdf:RDF>
  </metadata>
  <sodipodi:namedview
     pagecolor="#ffffff"
     bordercolor="#666666"
     borderopacity="1"
     objecttolerance="10"
     gridtolerance="10"
     guidetolerance="10"
     inkscape:pageopacity="0"
     inkscape:pageshadow="2"
     inkscape:window-width="1920"
     inkscape:window-height="1057"
     id="namedview39"
     showgrid="false"
     inkscape:zoom="2.1217393"
     inkscape:cx="111.85623"
     inkscape:cy="20.598788"
     inkscape:window-x="-8"
     inkscape:window-y="-8"
     inkscape:window-maximized="1"
     inkscape:current-layer="Blue" />
  <defs
     id="defs9">
    <style
       id="style2">.cls-1{fill:url(#linear-gradient);}.cls-2{fill:#2681ff;}.cls-3{fill:#0052cc;}</style>
    <linearGradient
       id="linear-gradient"
       x1="91.016998"
       y1="97.945999"
       x2="43.842999"
       y2="179.65401"
       gradientUnits="userSpaceOnUse">
      <stop
         offset="0"
         stop-color="#0052cc"
         id="stop4" />
      <stop
         offset="0.923"
         stop-color="#2684ff"
         id="stop6" />
    </linearGradient>
  </defs>
  <title
     id="title11">jira</title>
  <g
     id="Layer_2"
     data-name="Layer 2"
     transform="translate(-12.444537,1.2857104e-4)">
    <g
       id="Blue">
      <path
         class="cls-1"
         d="m 66.519,84.151 c -2.725,-2.911 -6.971,-2.746 -8.823,0.958 l -44.687,89.376 a 5.342,5.342 0 0 0 4.778,7.732 H 80.02 a 5.151,5.151 0 0 0 4.779,-2.954 c 13.419,-27.745 5.289,-69.93 -18.28,-95.112 z"
         id="path13"
         inkscape:connector-curvature="0"
         style="fill:url(#linear-gradient)" />
      <path
         class="cls-2"
         d="M 99.307,2.862 C 74.313,42.462 75.962,86.32 92.425,119.247 l 30.008,60.016 a 5.342,5.342 0 0 0 4.778,2.953 h 62.232 a 5.342,5.342 0 0 0 4.778,-7.732 c 0,0 -83.721,-167.466 -85.827,-171.656 -1.883,-3.751 -6.666,-3.802 -9.087,0.034 z"
         id="path15"
         inkscape:connector-curvature="0"
         style="fill:#2681ff" />
    </g>
  </g>
</svg>
