<?xml version="1.0" encoding="UTF-8" standalone="no"?>
<svg
   xmlns:dc="http://purl.org/dc/elements/1.1/"
   xmlns:cc="http://creativecommons.org/ns#"
   xmlns:rdf="http://www.w3.org/1999/02/22-rdf-syntax-ns#"
   xmlns:svg="http://www.w3.org/2000/svg"
   xmlns="http://www.w3.org/2000/svg"
   xmlns:xlink="http://www.w3.org/1999/xlink"
   xmlns:sodipodi="http://sodipodi.sourceforge.net/DTD/sodipodi-0.dtd"
   xmlns:inkscape="http://www.inkscape.org/namespaces/inkscape"
   height="91.211029"
   id="svg1609"
   inkscape:version="0.92.3 (2405546, 2018-03-11)"
   sodipodi:docname="Warning.svg"
   sodipodi:version="0.32"
   width="100"
   version="1.1">
  <metadata
     id="metadata2">
    <rdf:RDF>
      <cc:Work
         rdf:about="">
        <dc:title>advertising</dc:title>
        <dc:description />
        <dc:subject>
          <rdf:Bag>
            <rdf:li />
            <rdf:li>caution</rdf:li>
            <rdf:li>security</rdf:li>
            <rdf:li>warning</rdf:li>
            <rdf:li>signs_and_symbols</rdf:li>
            <rdf:li>sign</rdf:li>
          </rdf:Bag>
        </dc:subject>
        <dc:publisher>
          <cc:Agent
             rdf:about="http://www.openclipart.org">
            <dc:title>yves GUILLOU</dc:title>
          </cc:Agent>
        </dc:publisher>
        <dc:creator>
          <cc:Agent>
            <dc:title>yves GUILLOU</dc:title>
          </cc:Agent>
        </dc:creator>
        <dc:rights>
          <cc:Agent>
            <dc:title>yves GUILLOU</dc:title>
          </cc:Agent>
        </dc:rights>
        <dc:date />
        <dc:format>image/svg+xml</dc:format>
        <dc:type
           rdf:resource="http://purl.org/dc/dcmitype/StillImage" />
        <cc:license
           rdf:resource="http://web.resource.org/cc/PublicDomain" />
        <dc:language>en</dc:language>
      </cc:Work>
      <cc:License
         rdf:about="http://web.resource.org/cc/PublicDomain">
        <cc:permits
           rdf:resource="http://web.resource.org/cc/Reproduction" />
        <cc:permits
           rdf:resource="http://web.resource.org/cc/Distribution" />
        <cc:permits
           rdf:resource="http://web.resource.org/cc/DerivativeWorks" />
      </cc:License>
    </rdf:RDF>
  </metadata>
  <sodipodi:namedview
     bordercolor="#666666"
     borderopacity="1.0"
     id="base"
     inkscape:current-layer="svg1609"
     inkscape:cx="-10.333458"
     inkscape:cy="32.798829"
     inkscape:pageopacity="0.0"
     inkscape:pageshadow="2"
     inkscape:window-height="1057"
     inkscape:window-width="1920"
     inkscape:window-x="-8"
     inkscape:window-y="-8"
     inkscape:zoom="1"
     pagecolor="#ffffff"
     showgrid="false"
     inkscape:window-maximized="1"
     fit-margin-top="0"
     fit-margin-left="0"
     fit-margin-right="0"
     fit-margin-bottom="0" />
  <defs
     id="defs1610">
    <marker
       id="ArrowEnd"
       markerHeight="3"
       markerUnits="strokeWidth"
       markerWidth="4"
       orient="auto"
       refX="0"
       refY="5"
       viewBox="0 0 10 10">
      <path
         d="M 0,0 10,5 0,10 Z"
         id="path1612"
         inkscape:connector-curvature="0" />
    </marker>
    <marker
       id="ArrowStart"
       markerHeight="3"
       markerUnits="strokeWidth"
       markerWidth="4"
       orient="auto"
       refX="10"
       refY="5"
       viewBox="0 0 10 10">
      <path
         d="M 10,0 0,5 10,10 Z"
         id="path1614"
         inkscape:connector-curvature="0" />
    </marker>
    <clipPath
       clipPathUnits="userSpaceOnUse"
       id="clipPath844">
      <use
         x="0"
         y="0"
         xlink:href="#g840"
         id="use846"
         width="100%"
         height="100%" />
    </clipPath>
  </defs>
  <g
     id="g842"
     clip-path="url(#clipPath844)"
     transform="matrix(0.7388899,0,0,0.7388899,-7.7448223,-7.7448019)">
    <g
       inkscape:label="Clip"
       id="g840">
      <g
         id="g1615">
        <path
           style="fill:#ffffff;stroke:#000000;stroke-width:2"
           sodipodi:nodetypes="ccccccccccc"
           id="path1616"
           d="m 12.473,121.082 c -0.913967,1.76129 -1.9912,3.408 -1.9913,5.341 l 0.009,0.80788 c 0,4.172 3.265872,6.69412 7.020572,6.69412 H 138.831 c 3.755,0 6.98886,-3.12652 6.98886,-7.29852 L 145.78,125.815 c 0,-1.933 -0.95029,-3.61152 -1.991,-5.341 L 83.7056,12.6938 c -2.6546,-2.94957 -6.9583,-2.94957 -9.6133,4e-4 z"
           inkscape:connector-curvature="0" />
        <path
           style="fill:#ffcc00;stroke:#000000;stroke-width:4.85160017;stroke-linecap:round;stroke-linejoin:round"
           id="path1617"
           d="M 78.703,16.2915 15.2797,128.128 h 61.187 2.8521 60.5072 L 79.5155,16.2915 Z"
           inkscape:connector-curvature="0" />
      </g>
      <g
         id="g1618">
        <path
           style="fill:#000000;stroke:none"
           sodipodi:nodetypes="czczccczz"
           id="path1619"
           d="m 84.366054,45.1579 c 0.92385,0.9815 1.103746,1.21235 1.565646,3.0022 0.4619,1.78985 1.474117,5.308987 0.359892,9.302446 -0.462,6.9284 -0.161742,13.505426 -0.435017,20.516837 C 85.583663,84.98149 87.3174,93.426 79.2341,95.0426 77.1556,95.2736 75.0771,93.8879 74.2688,91.9248 72.8831,77.837 71.4975,64.442 70.1117,50.7006 c 1.1547,-3.5797 4.0415,-7.0439 7.5058,-7.5058 3.4643,-0.4619 5.824704,0.9816 6.748554,1.9631 z"
           inkscape:connector-curvature="0" />
        <path
           style="fill:#000000;stroke:none"
           id="path1620"
           d="m 83.1603,103.357 c 3.2333,1.963 3.8106,5.543 3.8106,9.122 -1.3857,3.465 -2.8868,7.506 -7.3903,7.506 -2.7714,-0.115 -5.4273,-0.693 -7.2749,-2.771 -1.1547,-4.157 -3.8106,-8.43 0,-11.894 2.8869,-4.042 6.9284,-3.002 10.8546,-1.963 z"
           inkscape:connector-curvature="0" />
      </g>
    </g>
  </g>
</svg>
