<?xml version="1.0" encoding="UTF-8" standalone="no"?>
<svg
   xmlns:dc="http://purl.org/dc/elements/1.1/"
   xmlns:cc="http://creativecommons.org/ns#"
   xmlns:rdf="http://www.w3.org/1999/02/22-rdf-syntax-ns#"
   xmlns:svg="http://www.w3.org/2000/svg"
   xmlns="http://www.w3.org/2000/svg"
   xmlns:sodipodi="http://sodipodi.sourceforge.net/DTD/sodipodi-0.dtd"
   xmlns:inkscape="http://www.inkscape.org/namespaces/inkscape"
   aria-hidden="true"
   data-prefix="far"
   data-icon="comment"
   class="svg-inline--fa fa-comment fa-w-16"
   role="img"
   viewBox="0 0 512 512"
   version="1.1"
   id="svg3725"
   sodipodi:docname="comment-javascript.svg"
   inkscape:version="0.92.3 (2405546, 2018-03-11)">
  <metadata
     id="metadata3731">
    <rdf:RDF>
      <cc:Work
         rdf:about="">
        <dc:format>image/svg+xml</dc:format>
        <dc:type
           rdf:resource="http://purl.org/dc/dcmitype/StillImage" />
        <dc:title />
      </cc:Work>
    </rdf:RDF>
  </metadata>
  <defs
     id="defs3729" />
  <sodipodi:namedview
     pagecolor="#ffffff"
     bordercolor="#666666"
     borderopacity="1"
     objecttolerance="10"
     gridtolerance="10"
     guidetolerance="10"
     inkscape:pageopacity="0"
     inkscape:pageshadow="2"
     inkscape:window-width="1920"
     inkscape:window-height="1057"
     id="namedview3727"
     showgrid="false"
     inkscape:zoom="1.2263883"
     inkscape:cx="259.03886"
     inkscape:cy="209.08689"
     inkscape:window-x="-8"
     inkscape:window-y="-8"
     inkscape:window-maximized="1"
     inkscape:current-layer="svg3725" />
  <path
     d="m 257.63079,124.14047 c 141.4,0 256.00001,82.18055 256.00001,183.6042 0,42.01711 -19.9,80.50337 -52.9,111.48658 14.9,34.77887 37.07048,70.23411 37.57048,70.5872 0.11351,1.98014 9.17572,14.19222 8.67277,15.70546 -0.57168,1.72001 -12.05303,5.51011 -19.7937,5.21621 -72.91499,-2.76842 -108.70271,-14.84811 -136.64956,-34.55883 -28.9,8.03267 -60.1,15.16753 -92.9,15.16753 -141.4,0 -255.9999812,-82.18049 -255.9999812,-183.60415 0,-101.42365 114.5999812,-183.6042 255.9999812,-183.6042 z M 225.23654,483.5062 c 68.35096,5.11759 87.46288,-3.59883 110.41552,-9.24129 l 15.06461,-4.61786 28.45039,17.36796 c 28.02194,16.32387 118.81073,24.33066 122.67426,17.02941 -9.80416,-11.92981 -18.13429,-33.65336 -32.66167,-55.66495 l -18.01354,-31.90834 8.64877,-4.67317 C 469.19131,399.63411 505.72115,371.69279 506.6737,310.71105 508.2686,208.60537 393.16949,132.49205 253.7926,131.05251 139.10045,129.86793 11.750599,193.08529 7.7725089,307.23571 5.0605789,385.05414 96.641959,473.87804 225.23654,483.5062 Z"
     id="path3723"
     inkscape:connector-curvature="0"
     style="fill:currentColor;stroke-width:0.93952775"
     sodipodi:nodetypes="ssccsscsssscccccccssss" />
  <text
     xml:space="preserve"
     style="font-style:normal;font-variant:normal;font-weight:normal;font-stretch:normal;font-size:166.50340271px;line-height:1.25;font-family:Gabriola;-inkscape-font-specification:'Gabriola, Normal';font-variant-ligatures:normal;font-variant-caps:normal;font-variant-numeric:normal;font-feature-settings:normal;text-align:start;letter-spacing:0px;word-spacing:0px;writing-mode:lr-tb;text-anchor:start;fill:#000000;fill-opacity:1;stroke:none;stroke-width:4.16246891"
     x="85.996292"
     y="277.39651"
     id="text9"
     transform="scale(0.79619824,1.2559686)"><tspan
       sodipodi:role="line"
       id="tspan9"
       x="85.996292"
       y="277.39651"
       style="stroke-width:4.16246891">JavaScript</tspan></text>
</svg>
