<?xml version="1.0" encoding="UTF-8" standalone="no"?>
<svg
   xmlns:dc="http://purl.org/dc/elements/1.1/"
   xmlns:cc="http://creativecommons.org/ns#"
   xmlns:rdf="http://www.w3.org/1999/02/22-rdf-syntax-ns#"
   xmlns:svg="http://www.w3.org/2000/svg"
   xmlns="http://www.w3.org/2000/svg"
   xmlns:sodipodi="http://sodipodi.sourceforge.net/DTD/sodipodi-0.dtd"
   xmlns:inkscape="http://www.inkscape.org/namespaces/inkscape"
   aria-hidden="true"
   data-prefix="far"
   data-icon="comment"
   class="svg-inline--fa fa-comment fa-w-16"
   role="img"
   viewBox="0 0 512 512"
   version="1.1"
   id="svg3725"
   sodipodi:docname="comment-regular.svg"
   inkscape:version="0.92.3 (2405546, 2018-03-11)">
  <metadata
     id="metadata3731">
    <rdf:RDF>
      <cc:Work
         rdf:about="">
        <dc:format>image/svg+xml</dc:format>
        <dc:type
           rdf:resource="http://purl.org/dc/dcmitype/StillImage" />
        <dc:title />
      </cc:Work>
    </rdf:RDF>
  </metadata>
  <defs
     id="defs3729" />
  <sodipodi:namedview
     pagecolor="#ffffff"
     bordercolor="#666666"
     borderopacity="1"
     objecttolerance="10"
     gridtolerance="10"
     guidetolerance="10"
     inkscape:pageopacity="0"
     inkscape:pageshadow="2"
     inkscape:window-width="1920"
     inkscape:window-height="1057"
     id="namedview3727"
     showgrid="false"
     inkscape:zoom="4.9055532"
     inkscape:cx="146.10933"
     inkscape:cy="129.3777"
     inkscape:window-x="-8"
     inkscape:window-y="-8"
     inkscape:window-maximized="1"
     inkscape:current-layer="svg3725" />
  <path
     d="M 256,32 C 114.6,32 0,125.1 0,240 0,287.6 19.9,331.2 52.9,366.3 38,405.7 15.829525,445.86628 15.329525,446.26628 15.216012,448.50953 6.1538077,462.34426 6.6567569,464.05856 7.2284313,466.0071 18.709783,470.3008 26.45045,469.96786 99.365441,466.83159 135.15315,453.14685 163.1,430.81712 192,439.91712 223.2,448 256,448 397.4,448 512,354.9 512,240 512,125.1 397.4,32 256,32 Z m 32.39425,407.11531 c -68.35096,5.79757 -87.46288,-4.07701 -110.41552,-10.46919 l -15.06461,-5.23145 -28.45039,19.67567 C 106.44179,461.5832 15.653009,470.65386 11.789484,462.38249 21.59364,448.86754 29.923774,424.25754 44.451149,399.32121 l 18.013544,-36.14807 -8.648766,-5.2941 C 44.439498,344.09895 7.9096517,312.44502 6.9571076,243.36053 5.3622011,127.68787 120.4613,41.461263 259.83819,39.830458 374.53034,38.488481 501.88021,110.10561 505.8583,239.42342 c 2.71193,88.1583 -88.86945,188.78442 -217.46405,199.69189 z"
     id="path3723"
     inkscape:connector-curvature="0"
     style="fill:currentColor"
     sodipodi:nodetypes="ssccsscsssscccccccssss" />
</svg>
