<?xml version="1.0" encoding="UTF-8" standalone="no"?>
<?xml-stylesheet type="text/css" href="svg.css" ?>

<svg
   xmlns:dc="http://purl.org/dc/elements/1.1/"
   xmlns:cc="http://creativecommons.org/ns#"
   xmlns:rdf="http://www.w3.org/1999/02/22-rdf-syntax-ns#"
   xmlns:svg="http://www.w3.org/2000/svg"
   xmlns="http://www.w3.org/2000/svg"
   xmlns:sodipodi="http://sodipodi.sourceforge.net/DTD/sodipodi-0.dtd"
   xmlns:inkscape="http://www.inkscape.org/namespaces/inkscape"
   width="19.31459mm"
   height="58.782597mm"
   viewBox="0 0 19.31459 58.782596"
   version="1.1"
   id="svg8"
   inkscape:version="0.92.3 (2405546, 2018-03-11)"
   sodipodi:docname="man-left.svg">
  <defs
     id="defs2" />
  <sodipodi:namedview
     id="base"
     pagecolor="#ffffff"
     bordercolor="#666666"
     borderopacity="1.0"
     inkscape:pageopacity="0.0"
     inkscape:pageshadow="2"
     inkscape:zoom="2.8"
     inkscape:cx="3.6101416"
     inkscape:cy="114.79124"
     inkscape:document-units="mm"
     inkscape:current-layer="layer1"
     showgrid="false"
     inkscape:window-width="1920"
     inkscape:window-height="1057"
     inkscape:window-x="-8"
     inkscape:window-y="-8"
     inkscape:window-maximized="1" />
  <metadata
     id="metadata5">
    <rdf:RDF>
      <cc:Work
         rdf:about="">
        <dc:format>image/svg+xml</dc:format>
        <dc:type
           rdf:resource="http://purl.org/dc/dcmitype/StillImage" />
        <dc:title></dc:title>
      </cc:Work>
    </rdf:RDF>
  </metadata>
  <g
     inkscape:label="Layer 1"
     inkscape:groupmode="layer"
     transform="translate(-105.15298,-128.72501)">
    <path
       style="stroke-width:0.26458332"
       d="m 123.23593,186.97866 c 0.38999,-0.43093 0.43789,-1.5018 0.43789,-9.78958 0,-8.09538 0.0516,-9.30573 0.39687,-9.30573 0.3476,0 0.39688,-1.67703 0.39688,-13.50574 v -13.50574 l -0.99219,0.18131 c -0.5457,0.0997 -1.28125,0.28881 -1.63454,0.4202 -0.58964,0.21929 -1.11066,-0.22526 -6.35,-5.41801 -3.13921,-3.1113 -6.08322,-5.91437 -6.54224,-6.22905 -0.97949,-0.67147 -2.37796,-0.74135 -3.20758,-0.16026 -0.50491,0.35365 -0.58804,0.65453 -0.58804,2.12848 v 1.7166 l 3.15206,3.36163 c 1.73362,1.84889 4.65066,4.84811 6.48229,6.66494 l 3.33024,3.30332 v 19.73545 19.73546 l 0.61236,0.57529 c 0.82987,0.77962 3.82814,0.84046 4.506,0.0914 z m 1.23164,-52.29548 v -5.95817 l -1.25677,0.002 c -4.32216,0.006 -6.18841,6.54612 -2.81946,9.88058 0.82984,0.82135 2.20321,1.58383 3.34862,1.85913 l 0.72761,0.17487 z"
       class="manleft"
       inkscape:connector-curvature="0" />
  </g>
</svg>
