<?xml version="1.0" encoding="UTF-8" standalone="no"?>
<!-- Created with Inkscape (http://www.inkscape.org/) -->

<svg
   xmlns:dc="http://purl.org/dc/elements/1.1/"
   xmlns:cc="http://creativecommons.org/ns#"
   xmlns:rdf="http://www.w3.org/1999/02/22-rdf-syntax-ns#"
   xmlns:svg="http://www.w3.org/2000/svg"
   xmlns="http://www.w3.org/2000/svg"
   xmlns:xlink="http://www.w3.org/1999/xlink"
   xmlns:sodipodi="http://sodipodi.sourceforge.net/DTD/sodipodi-0.dtd"
   xmlns:inkscape="http://www.inkscape.org/namespaces/inkscape"
   width="39.999901mm"
   height="58.814999mm"
   viewBox="0 0 39.999901 58.814998"
   version="1.1"
   id="svg4495"
   inkscape:version="0.92.3 (2405546, 2018-03-11)"
   sodipodi:docname="man-gradient.svg">
  <defs
     id="defs4489">
    <linearGradient
       inkscape:collect="always"
       id="linearGradient977">
      <stop
         style="stop-color:#000000;stop-opacity:1;"
         offset="0"
         id="stop973" />
      <stop
         style="stop-color:#0000d2;stop-opacity:1"
         offset="1"
         id="stop975" />
    </linearGradient>
    <clipPath
       clipPathUnits="userSpaceOnUse"
       id="clipPath4554">
      <rect
         style="fill:#ff0000;fill-opacity:1;stroke-width:0.28088593"
         id="rect4556"
         width="23.437777"
         height="62.015778"
         x="97.697769"
         y="111.43048" />
    </clipPath>
    <clipPath
       clipPathUnits="userSpaceOnUse"
       id="clipPath4526">
      <rect
         style="fill:#ff0000;fill-opacity:1;stroke-width:0.28088593"
         id="rect4528"
         width="23.437777"
         height="62.015778"
         x="74.26712"
         y="110.19662" />
    </clipPath>
    <clipPath
       clipPathUnits="userSpaceOnUse"
       id="clipPath4554-5">
      <rect
         style="fill:#ff0000;fill-opacity:1;stroke-width:0.28088593"
         id="rect4556-3"
         width="23.437777"
         height="62.015778"
         x="97.697769"
         y="111.43048" />
    </clipPath>
    <clipPath
       clipPathUnits="userSpaceOnUse"
       id="clipPath4526-5">
      <rect
         style="fill:#ff0000;fill-opacity:1;stroke-width:0.28088593"
         id="rect4528-4"
         width="23.437777"
         height="62.015778"
         x="74.26712"
         y="110.19662" />
    </clipPath>
    <clipPath
       clipPathUnits="userSpaceOnUse"
       id="clipPath4554-9">
      <rect
         style="fill:#ff0000;fill-opacity:1;stroke-width:0.28088593"
         id="rect4556-5"
         width="23.437777"
         height="62.015778"
         x="97.697769"
         y="111.43048" />
    </clipPath>
    <clipPath
       clipPathUnits="userSpaceOnUse"
       id="clipPath4526-4">
      <rect
         style="fill:#ff0000;fill-opacity:1;stroke-width:0.28088593"
         id="rect4528-7"
         width="23.437777"
         height="62.015778"
         x="74.26712"
         y="110.19662" />
    </clipPath>
    <linearGradient
       inkscape:collect="always"
       xlink:href="#linearGradient977"
       id="linearGradient979"
       x1="87.406067"
       y1="148.97665"
       x2="105.74075"
       y2="148.97665"
       gradientUnits="userSpaceOnUse" />
  </defs>
  <sodipodi:namedview
     id="base"
     pagecolor="#ffffff"
     bordercolor="#666666"
     borderopacity="1.0"
     inkscape:pageopacity="0.0"
     inkscape:pageshadow="2"
     inkscape:zoom="2.8284271"
     inkscape:cx="15.70123"
     inkscape:cy="100.89953"
     inkscape:document-units="mm"
     inkscape:current-layer="g5553"
     showgrid="true"
     showguides="true"
     inkscape:guide-bbox="true"
     inkscape:measure-start="-1.26901,78.1341"
     inkscape:measure-end="149.731,78.1341"
     inkscape:snap-global="false"
     inkscape:window-width="1920"
     inkscape:window-height="1057"
     inkscape:window-x="-8"
     inkscape:window-y="-8"
     inkscape:window-maximized="1">
    <inkscape:grid
       type="xygrid"
       id="grid4505"
       originx="-0.17955742"
       originy="-0.26402865" />
    <sodipodi:guide
       position="-0.17955741,59.267222"
       orientation="0,1"
       id="guide4507"
       inkscape:locked="false" />
  </sodipodi:namedview>
  <metadata
     id="metadata4492">
    <rdf:RDF>
      <cc:Work
         rdf:about="">
        <dc:format>image/svg+xml</dc:format>
        <dc:type
           rdf:resource="http://purl.org/dc/dcmitype/StillImage" />
        <dc:title />
      </cc:Work>
    </rdf:RDF>
  </metadata>
  <g
     inkscape:label="Layer 1"
     inkscape:groupmode="layer"
     id="layer1"
     transform="translate(-93.392906,-120.93774)"
     style="display:inline">
    <g
       id="g5553">
      <g
         id="g971"
         style="fill:url(#linearGradient979);fill-opacity:1;stroke:none;stroke-opacity:1">
        <g
           transform="matrix(0.99110197,0,0,0.99110174,16.88633,10.232239)"
           id="layer1-2"
           inkscape:label="Layer 1"
           clip-path="url(#clipPath4554)"
           style="fill:url(#linearGradient979);fill-opacity:1;stroke:none;stroke-opacity:1">
          <path
             inkscape:connector-curvature="0"
             id="path3822"
             d="m 93.36202,170.89207 c -1.47332,-0.62058 -1.41738,0.19534 -1.41738,-20.67219 v -19.21929 l -7.12515,-7.08048 c -3.91883,-3.89426 -7.26607,-7.42068 -7.43831,-7.83649 -0.36741,-0.88701 -0.19522,-1.77545 0.51381,-2.65107 0.40193,-0.49636 0.76437,-0.62877 1.72116,-0.62877 h 1.21202 l 6.55042,6.52036 6.55043,6.52036 1.16609,-0.63338 c 1.3903,-0.75515 3.73999,-0.85686 5.24715,-0.22713 l 0.97229,0.40625 6.22911,-6.22204 c 6.51059,-6.5032 6.98563,-6.85191 8.53154,-6.26274 0.39321,0.14986 0.90678,0.64346 1.14126,1.09689 0.8421,1.62845 0.57788,1.9985 -6.52522,9.13837 l -6.5986,6.63276 -0.0547,19.8857 -0.0547,19.88569 -0.72761,0.72761 c -1.03014,1.03015 -2.64363,1.02616 -3.53381,-0.009 l -0.63338,-0.73635 v -9.32912 -9.32912 l -1.12447,0.0545 -1.12448,0.0545 -0.0695,9.37867 -0.0694,9.37867 -0.60473,0.56812 c -0.70724,0.66442 -1.92911,0.92745 -2.7338,0.58851 z m 2.54513,-47.7785 c -3.35054,-1.03295 -4.90883,-4.99957 -3.2622,-8.30392 2.08039,-4.17481 8.17852,-4.13897 10.27114,0.0604 1.26249,2.53349 0.7108,5.28628 -1.42599,7.11529 -1.02957,0.88127 -2.7776,1.55924 -3.90793,1.51567 -0.26298,-0.0101 -1.01674,-0.18447 -1.67502,-0.38741 z"
             style="fill:url(#linearGradient979);stroke-width:0.26458332;fill-opacity:1;stroke:none;stroke-opacity:1" />
        </g>
        <g
           transform="matrix(0.99110197,0,0,0.99110173,16.878926,10.232256)"
           id="layer1-2-0"
           inkscape:label="Layer 1"
           clip-path="url(#clipPath4526)"
           style="fill:url(#linearGradient979);fill-opacity:1;stroke:none;stroke-opacity:1">
          <path
             inkscape:connector-curvature="0"
             id="path3822-2"
             d="m 93.36202,170.89207 c -1.47332,-0.62058 -1.41738,0.19534 -1.41738,-20.67219 v -19.21929 l -7.12515,-7.08048 c -3.91883,-3.89426 -7.26607,-7.42068 -7.43831,-7.83649 -0.36741,-0.88701 -0.19522,-1.77545 0.51381,-2.65107 0.40193,-0.49636 0.76437,-0.62877 1.72116,-0.62877 h 1.21202 l 6.55042,6.52036 6.55043,6.52036 1.16609,-0.63338 c 1.3903,-0.75515 3.73999,-0.85686 5.24715,-0.22713 l 0.97229,0.40625 6.22911,-6.22204 c 6.51059,-6.5032 6.98563,-6.85191 8.53154,-6.26274 0.39321,0.14986 0.90678,0.64346 1.14126,1.09689 0.8421,1.62845 0.57788,1.9985 -6.52522,9.13837 l -6.5986,6.63276 -0.0547,19.8857 -0.0547,19.88569 -0.72761,0.72761 c -1.03014,1.03015 -2.64363,1.02616 -3.53381,-0.009 l -0.63338,-0.73635 v -9.32912 -9.32912 l -1.12447,0.0545 -1.12448,0.0545 -0.0695,9.37867 -0.0694,9.37867 -0.60473,0.56812 c -0.70724,0.66442 -1.92911,0.92745 -2.7338,0.58851 z m 2.54513,-47.7785 c -3.35054,-1.03295 -4.90883,-4.99957 -3.2622,-8.30392 2.08039,-4.17481 8.17852,-4.13897 10.27114,0.0604 1.26249,2.53349 0.7108,5.28628 -1.42599,7.11529 -1.02957,0.88127 -2.7776,1.55924 -3.90793,1.51567 -0.26298,-0.0101 -1.01674,-0.18447 -1.67502,-0.38741 z"
             style="fill:url(#linearGradient979);stroke-width:0.26458332;fill-opacity:1;stroke:none;stroke-opacity:1" />
        </g>
      </g>
    </g>
  </g>
</svg>
