<?xml version="1.0" encoding="UTF-8" standalone="no"?>
<?xml-stylesheet type="text/css" href="svg.css" ?><svg
   xmlns:dc="http://purl.org/dc/elements/1.1/"
   xmlns:cc="http://creativecommons.org/ns#"
   xmlns:rdf="http://www.w3.org/1999/02/22-rdf-syntax-ns#"
   xmlns:svg="http://www.w3.org/2000/svg"
   xmlns="http://www.w3.org/2000/svg"
   xmlns:sodipodi="http://sodipodi.sourceforge.net/DTD/sodipodi-0.dtd"
   xmlns:inkscape="http://www.inkscape.org/namespaces/inkscape"
   aria-hidden="true"
   data-prefix="fas"
   data-icon="wrench"
   class="undefined"
   role="img"
   viewBox="0 0 390.28402 270.89709"
   width="389.98013"
   height="271.1781"
   version="1.1"
   id="svg4"
   sodipodi:docname="wrench-couchbase.svg"
   inkscape:version="0.92.3 (2405546, 2018-03-11)">
  <metadata
     id="metadata10">
    <rdf:RDF>
      <cc:Work
         rdf:about="">
        <dc:format>image/svg+xml</dc:format>
        <dc:type
           rdf:resource="http://purl.org/dc/dcmitype/StillImage" />
        <dc:title></dc:title>
      </cc:Work>
    </rdf:RDF>
  </metadata>
  <defs
     id="defs8" />
  <sodipodi:namedview
     pagecolor="#ffffff"
     bordercolor="#666666"
     borderopacity="1"
     objecttolerance="10"
     gridtolerance="10"
     guidetolerance="10"
     inkscape:pageopacity="0"
     inkscape:pageshadow="2"
     inkscape:window-width="1920"
     inkscape:window-height="1057"
     id="namedview6"
     showgrid="false"
     inkscape:zoom="0.61139897"
     inkscape:cx="46.028743"
     inkscape:cy="146.25324"
     inkscape:window-x="-8"
     inkscape:window-y="-8"
     inkscape:window-maximized="1"
     inkscape:current-layer="svg4" />
  <path
     class="wrenchfill"
     d="m 390.19458,217.12244 c -0.89951,-11.57655 -5.20236,-23.60835 -14.74808,-33.54125 -3.12607,-3.23661 -15.0963,-9.30948 -28.57318,-15.9989 -13.5048,-6.77298 -33.42696,-16.34715 -69.86826,-35.59667 C 202.11471,94.426434 200.85905,93.727174 200.46685,90.888174 197.91569,69.374344 188.78201,48.731263 175.30001,33.417065 157.10079,12.886186 129.9802,0.39715549 101.80668,-0.24291051 87.775715,-0.53494851 84.679746,-0.07116451 68.783165,5.1677985 52.468254,10.544621 47.58832,13.17321 41.845947,19.610818 36.772576,25.27142 36.247758,33.978092 40.54781,41.280166 c 2.205917,3.818134 3.489506,4.600956 31.196746,18.5663 l 28.934954,14.581038 2.15599,13.66692 c 1.14818,7.59876 1.9888,14.000276 1.76592,14.444746 -0.1666,0.33367 -5.771988,3.57189 -12.464445,7.16887 L 80.006851,116.21017 50.904577,101.68425 C 22.806776,87.662124 21.607017,87.129954 17.144268,87.673144 6.9356572,88.811354 -0.11660278,97.164794 0.00146022,108.07129 c 0.482163,13.38372 9.42271248,37.61525 13.52664478,43.49783 4.886705,8.77837 15.294063,22.17182 25.535901,30.02015 30.641851,23.57256 74.274764,25.66935 107.764884,7.48983 3.45777,-1.88163 6.77615,-3.62455 7.36181,-3.81757 0.5857,-0.19289 38.33747,18.25363 83.87438,41.09139 45.53692,22.83777 85.04655,42.09646 87.89219,42.82827 10.07136,2.61732 16.62643,2.49766 26.4157,-0.17199 10.01234,-2.83593 14.52965,-5.43777 22.5029,-12.98163 11.37331,-12.653 16.13649,-23.96234 15.31868,-38.90508 z m -7.47487,-18.14458 c 4.1605,7.16255 4.04471,9.36706 4.52372,17.46463 0.59162,9.82286 -1.71216,14.5865 -5.724,22.86549 -6.04563,12.47406 -14.18024,20.82172 -27.48316,25.20589 -8.70129,2.86765 -14.93885,3.63327 -24.47962,2.04694 -3.62658,-0.56721 -25.30911,-11.59337 -88.53613,-43.16405 -46.62507,-23.31397 -85.26485,-42.12684 -85.3764,-42.55284 0,0 -5.53996,2.47509 -8.71878,4.35753 -3.95959,2.32529 -9.41848,3.4494 -17.47839,6.01288 -10.40254,3.33556 -16.89708,4.72533 -26.15758,5.36557 C 87.585586,197.674 80.307898,195.27471 65.632251,189.72244 42.241756,177.85795 33.629028,172.04816 18.539549,149.55629 13.932272,141.61339 12.845581,135.58707 9.9680244,128.09445 6.2802542,118.45716 6.2881702,110.1491 7.0661372,104.97656 8.3996672,95.910594 11.643038,94.075274 20.513811,94.769334 c 2.287424,0.17371 11.274721,1.84841 29.774046,11.056696 26.535256,13.23847 28.113229,14.67491 30.232492,13.51268 1.254837,-0.69183 9.395493,-5.14992 15.139845,-8.24891 5.772306,-3.01545 9.567766,-5.7547 11.617656,-7.27792 0.82296,-2.35036 0.12255,-7.486656 -0.28559,-14.022146 -1.00814,-6.62459 -2.58896,-14.39324 -3.55855,-17.557031 C 97.156244,66.849711 100.64076,69.953665 75.632836,55.992117 57.105554,46.700282 49.020094,43.227144 47.512775,41.497721 41.483518,34.580014 40.436551,27.488628 47.239131,21.443665 54.822323,14.677648 75.364832,6.5161925 88.390646,5.1915895 133.34913,6.4573955 168.92307,19.60577 186.71588,60.306267 c 3.54739,8.106672 5.2669,12.389034 6.72211,20.350387 1.00731,5.23349 2.41903,12.23162 2.44765,13.42802 0.16848,1.89239 10.95649,8.861416 85.76319,46.448166 81.64284,41.08475 86.72788,41.42819 91.66816,46.47861 2.81902,2.87401 4.10173,3.45323 5.86087,6.49103 z m -56.01605,11.89096 c -3.95827,4.55104 -3.61947,11.3962 0.76243,15.6103 6.19609,6.02791 17.01715,2.83269 18.99256,-5.70274 2.67103,-11.45466 -12.17311,-18.89932 -19.75499,-9.90756 z m 16.51078,4.62777 c 1.14567,3.42549 1.0619,3.35838 -0.3868,6.24752 -1.44878,2.88917 -1.46596,2.95601 -4.89627,4.08652 -3.43031,1.13051 -3.32288,1.16813 -6.22473,-0.28722 -2.90186,-1.45537 -2.88833,-1.63348 -4.03403,-5.05898 -1.14567,-3.42549 -1.1426,-3.19757 0.30618,-6.08673 1.44879,-2.88918 1.42554,-3.0769 4.85586,-4.20742 3.43031,-1.13051 3.12119,-0.96746 6.02306,0.48789 2.90186,1.45537 3.21104,1.39293 4.35673,4.81842 z"
     id="path2"
     inkscape:connector-curvature="0"
     sodipodi:nodetypes="cccccccscccccsccccccccsscccccccsccscccccccccccccccscccccccccccccsssssssss"
     style="stroke-width:0.88094759" />
  <text
     xml:space="preserve"
     style="font-style:normal;font-variant:normal;font-weight:normal;font-stretch:normal;font-size:38.44818115px;line-height:1.25;font-family:sans-serif;-inkscape-font-specification:'sans-serif, Normal';font-variant-ligatures:normal;font-variant-caps:normal;font-variant-numeric:normal;font-feature-settings:normal;text-align:start;letter-spacing:0px;word-spacing:0px;writing-mode:lr-tb;text-anchor:start;stroke:none;stroke-width:0.96120876"
     x="154.13737"
     y="52.969627"
     class="wrenchfill"
     transform="matrix(0.88852522,0.45961172,-0.37349741,0.93225965,0,0)"
     id="text7"><tspan
       sodipodi:role="line"
       id="tspan819"
       x="154.13737"
       y="52.969627"
       style="stroke-width:0.96120876">CouchBase</tspan></text>
</svg>
