<?xml version="1.0" encoding="UTF-8" standalone="no"?>
<?xml-stylesheet type="text/css" href="svg.css" ?><svg
   xmlns:dc="http://purl.org/dc/elements/1.1/"
   xmlns:cc="http://creativecommons.org/ns#"
   xmlns:rdf="http://www.w3.org/1999/02/22-rdf-syntax-ns#"
   xmlns:svg="http://www.w3.org/2000/svg"
   xmlns="http://www.w3.org/2000/svg"
   xmlns:sodipodi="http://sodipodi.sourceforge.net/DTD/sodipodi-0.dtd"
   xmlns:inkscape="http://www.inkscape.org/namespaces/inkscape"
   aria-hidden="true"
   data-prefix="fas"
   data-icon="wrench"
   class="undefined"
   role="img"
   viewBox="0 0 338.28549 341.262"
   width="338.02209"
   height="341.616"
   version="1.1"
   id="svg4"
   sodipodi:docname="wrench-jira.svg"
   inkscape:version="0.92.3 (2405546, 2018-03-11)">
  <metadata
     id="metadata10">
    <rdf:RDF>
      <cc:Work
         rdf:about="">
        <dc:format>image/svg+xml</dc:format>
        <dc:type
           rdf:resource="http://purl.org/dc/dcmitype/StillImage" />
        <dc:title></dc:title>
      </cc:Work>
    </rdf:RDF>
  </metadata>
  <defs
     id="defs8" />
  <sodipodi:namedview
     pagecolor="#ffffff"
     bordercolor="#666666"
     borderopacity="1"
     objecttolerance="10"
     gridtolerance="10"
     guidetolerance="10"
     inkscape:pageopacity="0"
     inkscape:pageshadow="2"
     inkscape:window-width="1920"
     inkscape:window-height="1057"
     id="namedview6"
     showgrid="false"
     inkscape:zoom="0.61139897"
     inkscape:cx="26.76074"
     inkscape:cy="190.71918"
     inkscape:window-x="-8"
     inkscape:window-y="-8"
     inkscape:window-maximized="1"
     inkscape:current-layer="svg4" />
  <path
     class="wrenchfill"
     d="m 336.42794,304.77952 c 2.91291,-11.24013 2.75535,-24.01721 -3.04264,-36.51388 -1.90403,-4.07709 -11.24972,-13.71161 -21.81978,-24.41901 -10.5693,-10.7955 -26.29669,-26.32632 -54.50041,-56.37732 -58.61168,-59.86592 -59.5718,-60.93542 -59.01973,-63.7477 4.5816,-21.17457 2.65517,-43.665675 -5.1158,-62.531012 C 182.39358,35.858377 160.80642,15.230815 134.3714,5.4662582 121.19755,0.62859121 118.11898,0.06067721 101.38272,-0.15295079 84.206036,-0.37220779 78.736626,0.52711821 71.213307,4.7481742 64.575255,8.4519252 61.248391,16.515023 62.940943,24.818396 c 0.844808,4.327877 1.804174,5.485472 23.466173,27.699877 l 22.622864,23.195783 -2.40427,13.625438 c -1.38456,7.559262 -2.67075,13.886336 -3.02602,14.234206 -0.26603,0.26138 -6.619674,1.50137 -14.117974,2.72723 L 75.896656,108.50634 53.097647,85.308281 C 31.084763,62.913203 30.123186,62.019896 25.726268,61.082727 15.702163,58.840275 6.3172699,64.447249 2.8831979,74.799678 c -3.8951,12.813459 -3.31792005,38.635292 -1.349355,45.532522 1.76739,9.8902 7.255179,25.93955 14.3891651,36.69119 21.313875,32.2538 61.894938,48.42182 99.476032,42.11753 3.88166,-0.65529 7.58641,-1.22473 8.20301,-1.21686 0.61659,0.008 30.32066,29.72565 65.95936,66.12697 35.63871,36.40133 66.74111,67.45852 69.19426,69.0757 8.67338,5.74936 14.91127,7.76727 25.03669,8.42515 10.39042,0.57314 15.50821,-0.41878 25.50087,-4.96073 14.86901,-8.26819 23.05014,-17.41468 27.13466,-31.81159 z m -1.17,-19.58904 c 1.60594,8.12606 0.77975,10.17317 -1.39979,17.98661 -2.63395,9.4816 -6.36125,13.23752 -12.84668,19.76253 -9.77256,9.83101 -20.17913,15.08064 -34.18473,14.90186 -9.1609,-0.11693 -15.30854,-1.42074 -23.81532,-6.02262 -3.24518,-1.71541 -20.16527,-19.19164 -69.69406,-69.60259 -36.51294,-37.20542 -66.93767,-67.55822 -66.90467,-67.99734 0,0 -6.04368,0.53959 -9.66181,1.28633 -4.50046,0.91171 -10.02826,0.20006 -18.483744,0.004 -10.92186,-0.22751 -17.51543,-1.02462 -26.481029,-3.42977 -15.20643,-4.07066 -21.308776,-8.7056 -33.382174,-18.72735 C 20.141199,154.52785 13.885095,146.23364 6.9274349,120.05794 5.1526809,111.04867 6.0841869,104.99642 5.7988039,96.975312 5.4444579,86.662624 8.1529089,78.808438 10.570219,74.169791 14.77867,66.029833 18.442525,65.348632 26.60579,68.88889 c 2.106695,0.907922 10.061344,5.413442 24.562138,20.135688 20.789986,21.146002 21.815254,23.017412 24.197239,22.607292 1.411589,-0.2463 10.559369,-1.81568 16.999169,-2.87883 6.43908,-0.97506 10.918894,-2.3316 13.352644,-3.10566 1.54236,-1.95514 2.54981,-7.040129 4.28854,-13.353297 1.20029,-6.592486 2.23094,-14.453058 2.34258,-17.760205 C 108.16165,67.402479 110.44778,71.470645 91.337236,50.137383 76.837166,35.327038 70.320039,29.413967 69.456837,27.288456 66.004054,18.786403 67.319381,11.739857 75.717666,8.2347932 c 9.37091,-3.933172 31.450834,-4.972885 44.199704,-1.990819 42.10478,15.8131268 71.47175,39.8124188 75.06623,84.0864978 0.7192,8.819572 0.9531,13.428328 -0.25899,21.430308 -0.74882,5.27668 -1.68889,12.35361 -2.05078,13.49433 -0.45589,1.84437 7.48047,11.94203 66.00408,71.80682 63.8512,65.39522 68.54836,67.37316 71.57838,73.75533 1.73154,3.63436 2.75627,4.59912 3.43225,8.04381 z m -56.83897,-6.96588 c -5.22281,3.01698 -7.12778,9.60045 -4.35393,15.0102 3.89983,7.71483 15.17185,8.21112 19.81484,0.78155 6.24987,-9.96407 -5.36765,-21.83019 -15.46091,-15.79175 z m 14.1094,9.74407 c -0.0302,3.61187 -0.0876,3.52117 -2.39687,5.7824 -2.30935,2.26122 -2.34733,2.31885 -5.95883,2.27275 -3.61151,-0.0461 -3.52214,0.0244 -5.79323,-2.29529 -2.27108,-2.31971 -2.20038,-2.48375 -2.17021,-6.09564 0.0302,-3.61188 -0.041,-3.39534 2.26836,-5.65656 2.30936,-2.26123 2.3484,-2.44631 5.95992,-2.40022 3.6115,0.0461 3.26617,0.0998 5.53727,2.4195 2.27108,2.31971 2.58377,2.36118 2.55359,5.97306 z"
     id="path2"
     inkscape:connector-curvature="0"
     sodipodi:nodetypes="cccccccscccccsccccccccsscccccccsccscccccccccccccccscccccccccccccsssssssss"
     style="stroke-width:0.88094759" />
  <text
     xml:space="preserve"
     style="font-style:normal;font-variant:normal;font-weight:normal;font-stretch:normal;font-size:74.17375183px;line-height:1.25;font-family:sans-serif;-inkscape-font-specification:'sans-serif, Normal';font-variant-ligatures:normal;font-variant-caps:normal;font-variant-numeric:normal;font-feature-settings:normal;text-align:start;letter-spacing:0px;word-spacing:0px;writing-mode:lr-tb;text-anchor:start;stroke:none;stroke-width:1.854352"
     x="195.76208"
     y="25.482079"
     class="wrenchfill"
     transform="matrix(0.7000019,0.71403581,-0.66499242,0.7502431,0,0)"
     id="text7"><tspan
       sodipodi:role="line"
       id="tspan817"
       x="195.76208"
       y="25.482079">JIRA</tspan></text>
</svg>
