<?xml version="1.0" encoding="UTF-8" standalone="no"?>
<?xml-stylesheet type="text/css" href="svg.css" ?><svg
   xmlns:dc="http://purl.org/dc/elements/1.1/"
   xmlns:cc="http://creativecommons.org/ns#"
   xmlns:rdf="http://www.w3.org/1999/02/22-rdf-syntax-ns#"
   xmlns:svg="http://www.w3.org/2000/svg"
   xmlns="http://www.w3.org/2000/svg"
   xmlns:sodipodi="http://sodipodi.sourceforge.net/DTD/sodipodi-0.dtd"
   xmlns:inkscape="http://www.inkscape.org/namespaces/inkscape"
   aria-hidden="true"
   data-prefix="fas"
   data-icon="wrench"
   class="undefined"
   role="img"
   viewBox="0 0 385.3 385.6"
   width="385"
   height="386"
   version="1.1"
   id="svg4"
   sodipodi:docname="wrench-solid.svg"
   inkscape:version="0.92.3 (2405546, 2018-03-11)">
  <metadata
     id="metadata10">
    <rdf:RDF>
      <cc:Work
         rdf:about="">
        <dc:format>image/svg+xml</dc:format>
        <dc:type
           rdf:resource="http://purl.org/dc/dcmitype/StillImage" />
      </cc:Work>
    </rdf:RDF>
  </metadata>
  <defs
     id="defs8" />
  <sodipodi:namedview
     pagecolor="#ffffff"
     bordercolor="#666666"
     borderopacity="1"
     objecttolerance="10"
     gridtolerance="10"
     guidetolerance="10"
     inkscape:pageopacity="0"
     inkscape:pageshadow="2"
     inkscape:window-width="1920"
     inkscape:window-height="1057"
     id="namedview6"
     showgrid="false"
     inkscape:zoom="0.86464871"
     inkscape:cx="-378.31246"
     inkscape:cy="282.19873"
     inkscape:window-x="-8"
     inkscape:window-y="-8"
     inkscape:window-maximized="1"
     inkscape:current-layer="svg4" />
  <path
     class="wrenchfill"
     d="m 42.6,383.9 c 12.8,3.2 27.3,2.9 41.4,-3.8 4.6,-2.2 15.4,-12.9 27.4,-25 12.1,-12.1 29.5,-30.1 63.2,-62.4 67.1,-67.1 68.3,-68.2 71.5,-67.6 24.1,5 49.6,2.6 70.9,-6.4 28.6,-12.2 51.7,-36.9 62.4,-67 5.3,-15 5.9,-18.5 5.9,-37.5 0,-19.5 -1.1,-25.7 -6,-34.2 -4.3,-7.5 -13.5,-11.2 -22.9,-9.2 -4.9,1 -6.2,2.1 -31.1,26.9 l -26,25.9 -15.5,-2.6 c -8.6,-1.5 -15.8,-2.9 -16.2,-3.3 -0.3,-0.3 -1.8,-7.5 -3.3,-16 l -2.7,-15.4 26,-26.1 C 312.7,35 313.7,33.9 314.7,28.9 317.1,17.5 310.6,6.9 298.8,3.1 284.2,-1.2 254.9,-0.3 247.1,2 235.9,4.1 217.76313,10.481566 205.66313,18.681566 169.36313,43.181566 151.6,89.4 159.3,132 c 0.8,4.4 1.5,8.6 1.5,9.3 0,0.7 -33.3,34.7 -74.1,75.5 -40.8,40.8 -75.6,76.4 -77.4,79.2 -6.4,9.9 -8.6,17 -9.2,28.5 -0.5,11.8 0.7,17.6 6,28.9 9.6,16.8 20.1,26 36.5,30.5 z m 22.217048,-1.51383 c -9.2,1.9 -11.535482,0.98157 -20.435482,-1.41843 -10.8,-2.9 -15.117048,-7.09539 -22.617048,-14.39539 -11.3,-11 -17.4092164,-22.76313 -17.4092164,-38.66313 0,-10.4 1.390783,-17.39079 6.4907834,-27.09079 1.9,-3.7 21.490783,-23.07235 77.990783,-79.77235 41.700002,-41.8 75.710322,-76.62408 76.209212,-76.59078 0,0 -0.7,-6.8553 -1.6,-10.9553 -1.1,-5.1 -0.37234,-11.38157 -0.27234,-20.98157 0.1,-12.4 0.90921,-19.892165 3.50921,-30.092165 4.4,-17.3 9.57235,-24.270963 20.77235,-38.070963 21.10139,-20.909217 30.42488,-28.089397 60.0341,-36.2354819 10.2,-2.1 17.08295,-1.1 26.18295,-1.5 11.7,-0.5 20.65391,2.5 25.95391,5.1999999 9.3,4.7 10.12627,8.852529 6.22627,18.152529 -1,2.4 -5.99861,11.472349 -22.49861,28.072349 -23.7,23.8 -25.80922,24.981567 -25.30922,27.681567 0.3,1.6 2.21382,11.969127 3.51382,19.269125 1.2,7.3 2.80461,12.37235 3.71844,15.12765 2.24147,1.73226 8.02765,2.82765 15.21843,4.74148 7.5,1.3 16.43687,2.39539 20.19217,2.49078 8.03365,-4.81982 3.44931,-2.18617 27.38618,-24.08156 16.6,-16.600005 23.21704,-24.05392 25.61704,-25.05392 9.6,-4 17.61705,-2.573735 21.71705,6.926265 4.6,10.6 6.1,35.653915 2.9,50.153915 -17.33825,47.9447 -44.15253,81.50783 -94.35253,86.00783 -10,0.9 -15.22765,1.20922 -24.32765,-0.0908 -6,-0.8 -14.04608,-1.8 -15.34608,-2.2 -2.1,-0.5 -13.44609,8.60461 -80.54609,75.60461 -73.299998,73.1 -75.476956,78.45069 -82.676956,81.95069 -4.1,2 -5.18018,3.17235 -9.08018,3.97235 z M 71.9,317.8 c -3.5,-5.9 -11,-8 -17.1,-4.8 -8.7,4.5 -9.1,17.3 -0.6,22.5 11.4,7 24.7,-6.3 17.7,-17.7 z m -10.85532,16.10852 c -4.1,0 -3.99788,-0.066 -6.59788,-2.66596 -2.6,-2.6 -2.66596,-2.64256 -2.66596,-6.74256 0,-4.1 -0.07872,-3.99788 2.52128,-6.59788 2.6,-2.6 2.78724,-2.52128 6.88724,-2.52128 4.1,0 3.8532,-0.0787 6.4532,2.52128 2.6,2.6 2.81064,2.64256 2.81064,6.74256 0,4.1 -0.06596,3.70852 -2.66596,6.30852 -2.6,2.6 -2.64256,2.95532 -6.74256,2.95532 z"
     id="path2"
     inkscape:connector-curvature="0"
     sodipodi:nodetypes="cccccccscccccsccccccccsscccccccsccscccccccccccccccscccccccccccccsssssssss" />
  <text
     xml:space="preserve"
     style="font-style:normal;font-weight:normal;font-size:84.19807434px;line-height:1.25;font-family:sans-serif;letter-spacing:0px;word-spacing:0px;stroke:none;stroke-width:2.10495162"
     x="-116.46397"
     y="302.48553"
     class="wrenchfill"
     transform="matrix(0.69475298,-0.71607991,0.76800214,0.6477829,0,0)"><tspan
       sodipodi:role="line"
       id="tspan818"
       x="-116.46397"
       y="302.48553"
       style="stroke-width:2.10495162">VS </tspan></text>
</svg>
