<?xml version="1.0" encoding="UTF-8" standalone="no"?>
<?xml-stylesheet type="text/css" href="svg.css" ?><svg
   xmlns:dc="http://purl.org/dc/elements/1.1/"
   xmlns:cc="http://creativecommons.org/ns#"
   xmlns:rdf="http://www.w3.org/1999/02/22-rdf-syntax-ns#"
   xmlns:svg="http://www.w3.org/2000/svg"
   xmlns="http://www.w3.org/2000/svg"
   xmlns:sodipodi="http://sodipodi.sourceforge.net/DTD/sodipodi-0.dtd"
   xmlns:inkscape="http://www.inkscape.org/namespaces/inkscape"
   aria-hidden="true"
   data-prefix="fas"
   data-icon="wrench"
   class="undefined"
   role="img"
   viewBox="0 0 276.23666 387.36511"
   width="276.02158"
   height="387.76694"
   version="1.1"
   id="svg4"
   sodipodi:docname="wrench-sql.svg"
   inkscape:version="0.92.3 (2405546, 2018-03-11)">
  <metadata
     id="metadata10">
    <rdf:RDF>
      <cc:Work
         rdf:about="">
        <dc:format>image/svg+xml</dc:format>
        <dc:type
           rdf:resource="http://purl.org/dc/dcmitype/StillImage" />
        <dc:title></dc:title>
      </cc:Work>
    </rdf:RDF>
  </metadata>
  <defs
     id="defs8" />
  <sodipodi:namedview
     pagecolor="#ffffff"
     bordercolor="#666666"
     borderopacity="1"
     objecttolerance="10"
     gridtolerance="10"
     guidetolerance="10"
     inkscape:pageopacity="0"
     inkscape:pageshadow="2"
     inkscape:window-width="1920"
     inkscape:window-height="1057"
     id="namedview6"
     showgrid="false"
     inkscape:zoom="0.61139897"
     inkscape:cx="-30.248986"
     inkscape:cy="194.88616"
     inkscape:window-x="-8"
     inkscape:window-y="-8"
     inkscape:window-maximized="1"
     inkscape:current-layer="svg4" />
  <path
     class="wrenchfill"
     d="m 8.1439269,23.169354 c -6.027156,9.924667 -9.556705,22.205588 -7.60411596,35.842694 0.64892996,4.452735 6.82329696,16.370929 13.86109706,29.6692 7.011693,13.382412 17.598845,32.785232 35.951015,69.686592 38.88314,74.21157 39.4945,75.5123 38.15576,78.04637 -10.48673,18.95736 -15.1205,41.0501 -13.11303,61.35427 2.79251,27.29341 17.52297,53.26485 40.024887,70.23013 11.222,8.42734 14.0065,9.85796 29.97187,14.8834 16.3855,5.15769 21.88214,5.87194 30.30246,3.99687 7.42357,-1.63468 12.93199,-8.39773 13.70296,-16.83671 0.43764,-4.38779 -0.14762,-5.77266 -14.49266,-33.28524 l -14.98248,-28.72914 6.22716,-12.35539 c 3.50331,-6.84005 6.55749,-12.52846 6.99791,-12.75925 0.33004,-0.17367 6.77157,0.46905 14.30517,1.45503 l 13.64453,1.80123 15.15051,28.78206 c 14.629,27.78666 15.29251,28.91909 19.23312,31.08306 8.9533,5.03484 19.5555,2.36883 25.82603,-6.55564 7.42091,-11.14839 14.30615,-36.04204 14.40776,-43.21398 1.15638,-9.9801 0.52419,-26.92996 -3.21042,-39.28084 -11.11983,-37.02618 -45.32371,-64.19827 -83.1279,-68.98638 -3.9059,-0.49059 -7.61765,-1.01244 -8.20584,-1.19758 -0.58816,-0.18527 -20.47309,-37.19959 -44.11591,-82.32375 C 113.41099,59.352174 92.572843,20.652309 90.689493,18.397045 84.039833,10.393008 78.647583,6.6638109 69.140823,3.1172019 59.355883,-0.42460706 54.169283,-0.94890206 43.291853,0.52216794 26.671413,4.1569149 16.202401,10.55917 8.1439809,23.169331 Z m -4.5222,19.095789 c 0.80283,-8.244231 2.183672,-9.966597 6.5214891,-16.821044 5.253476,-8.321032 9.904688,-10.844106 17.994757,-15.224438 12.19017,-6.5993541 23.66782,-8.6288811 37.0283,-4.4233761 8.73894,2.750762 14.25045,5.7701321 21.07112,12.6273361 2.61351,2.57747 13.782437,24.186804 46.691157,86.727829 24.24838,46.14602 44.64048,83.97614 44.48239,84.38715 0,0 5.94295,1.22415 9.62283,1.55126 4.57232,0.42328 9.66085,2.69705 17.70147,5.32039 10.39341,3.3639 16.47791,6.0265 24.37071,10.91224 13.38937,8.27832 17.89798,14.47459 26.5729,27.5493 12.06636,23.287 15.66817,33.03173 14.79104,60.10214 -0.89557,9.13864 -3.53094,14.66605 -5.56813,22.42939 -2.63123,9.97766 -7.48728,16.71878 -11.13829,20.46452 -6.37478,6.58271 -10.07957,6.17967 -16.87707,0.43804 -1.75588,-1.47627 -8.07556,-8.08215 -17.72102,-26.35735 -13.81774,-26.23827 -14.26049,-28.32569 -16.65965,-28.61908 -1.4227,-0.17075 -10.63482,-1.3029 -17.10791,-2.13978 -6.44703,-0.92104 -11.12773,-0.9124 -13.68128,-0.87219 -2.04017,1.42799 -4.46965,6.00726 -7.95319,11.55201 -3.04837,5.96732 -6.29957,13.19786 -7.35909,16.33267 1.95481,8.03505 0.93741,3.48079 13.09294,29.41463 9.61939,18.35935 14.15704,25.89905 14.3714,28.18312 0.85743,9.13627 -2.43189,15.50527 -11.48385,16.44266 -10.10668,1.06718 -31.55025,-4.29727 -42.89979,-10.82525 -35.765237,-27.27114 -56.974537,-58.71236 -47.663567,-102.1453 1.85176,-8.65293 2.95532,-13.13372 6.42099,-20.4474 2.23703,-4.83733 5.17576,-11.34353 5.85089,-12.33165 0.96784,-1.63488 -3.72351,-13.59062 -42.52265,-87.77574 C 9.2627459,67.701468 5.3344129,64.454349 4.2711969,57.469889 3.6599179,53.490801 2.9565239,52.271753 3.3014259,48.778353 Z M 56.045103,65.308194 c 5.87048,-1.384686 9.59108,-7.140392 8.49306,-13.119861 -1.51229,-8.511181 -12.1636,-12.233334 -18.74987,-6.456071 -8.85512,7.741487 -1.14802,22.451079 10.25681,19.575932 z M 45.340493,51.912922 c 1.06931,-3.450089 1.09815,-3.3467 3.96089,-4.846901 2.86282,-1.500178 2.91578,-1.544421 6.36094,-0.459985 3.44515,1.084436 3.37988,0.991181 4.88652,3.866736 1.50664,2.875577 1.39168,3.012296 0.32239,6.46241 -1.06932,3.450089 -0.93877,3.263236 -3.80158,4.763407 -2.86283,1.500181 -2.95353,1.666172 -6.3987,0.581738 -3.44515,-1.084436 -3.09898,-1.036384 -4.60564,-3.91195 -1.50663,-2.875577 -1.79412,-3.005355 -0.72482,-6.455455 z"
     id="path2"
     inkscape:connector-curvature="0"
     sodipodi:nodetypes="cccccccscccccsccccccccsscccccccsccscccccccccccccccscccccccccccccsssssssss"
     style="stroke-width:0.88094759" />
  <text
     xml:space="preserve"
     style="font-style:normal;font-variant:normal;font-weight:normal;font-stretch:normal;font-size:69.0364151px;line-height:1.25;font-family:sans-serif;-inkscape-font-specification:'sans-serif, Normal';font-variant-ligatures:normal;font-variant-caps:normal;font-variant-numeric:normal;font-feature-settings:normal;text-align:start;letter-spacing:0px;word-spacing:0px;writing-mode:lr-tb;text-anchor:start;stroke:none;stroke-width:1.72589898"
     x="119.46655"
     y="9.6563244"
     class="wrenchfill"
     transform="matrix(0.50445238,0.84281955,-0.79675602,0.65115848,0,0)"
     id="text7"><tspan
       sodipodi:role="line"
       id="tspan821"
       x="119.46655"
       y="9.6563244"
       style="stroke-width:1.72589898">SQL</tspan></text>
</svg>
