<?xml version="1.0" encoding="UTF-8" standalone="no"?>
<?xml-stylesheet type="text/css" href="svg.css" ?><svg
   xmlns:dc="http://purl.org/dc/elements/1.1/"
   xmlns:cc="http://creativecommons.org/ns#"
   xmlns:rdf="http://www.w3.org/1999/02/22-rdf-syntax-ns#"
   xmlns:svg="http://www.w3.org/2000/svg"
   xmlns="http://www.w3.org/2000/svg"
   xmlns:sodipodi="http://sodipodi.sourceforge.net/DTD/sodipodi-0.dtd"
   xmlns:inkscape="http://www.inkscape.org/namespaces/inkscape"
   aria-hidden="true"
   data-prefix="fas"
   data-icon="wrench"
   class="undefined"
   role="img"
   viewBox="0 0 407.24265 201.79173"
   width="406.92557"
   height="202.00105"
   version="1.1"
   id="svg4"
   sodipodi:docname="wrench-git.svg"
   inkscape:version="0.92.3 (2405546, 2018-03-11)">
  <metadata
     id="metadata10">
    <rdf:RDF>
      <cc:Work
         rdf:about="">
        <dc:format>image/svg+xml</dc:format>
        <dc:type
           rdf:resource="http://purl.org/dc/dcmitype/StillImage" />
        <dc:title></dc:title>
      </cc:Work>
    </rdf:RDF>
  </metadata>
  <defs
     id="defs8" />
  <sodipodi:namedview
     pagecolor="#ffffff"
     bordercolor="#666666"
     borderopacity="1"
     objecttolerance="10"
     gridtolerance="10"
     guidetolerance="10"
     inkscape:pageopacity="0"
     inkscape:pageshadow="2"
     inkscape:window-width="1920"
     inkscape:window-height="1057"
     id="namedview6"
     showgrid="false"
     inkscape:zoom="0.61139897"
     inkscape:cx="51.102356"
     inkscape:cy="133.07824"
     inkscape:window-x="-8"
     inkscape:window-y="-8"
     inkscape:window-maximized="1"
     inkscape:current-layer="svg4" />
  <path
     class="wrenchfill"
     d="m 6.6588517,128.91438 c 6.0562593,9.90693 15.3517123,18.67467 28.3660713,23.19239 4.254619,1.46499 17.677189,1.44273 32.722118,1.28595 15.107752,-0.095 37.205149,-0.60695 78.413629,0.004 83.77935,-0.52692 85.21561,-0.4738 86.85374,1.87784 12.03865,18.01179 29.54737,32.25979 48.51178,39.78575 25.5356,10.03304 55.37022,8.85089 80.76463,-3.36716 12.63478,-6.10864 15.18291,-7.9272 26.96944,-19.81105 12.0967,-12.19657 15.25178,-16.75383 17.44637,-25.09658 1.95117,-7.34673 -1.53328,-15.34299 -8.67934,-19.89761 -3.69868,-2.40083 -5.19775,-2.51572 -36.22523,-2.38274 l -32.40089,0.14164 -8.1247,-11.19921 c -4.47227,-6.24966 -8.12705,-11.57213 -8.13021,-12.06935 -0.003,-0.37293 3.52177,-5.802695 7.85233,-12.045575 l 7.85707,-11.29973 32.52497,-0.26671 c 31.40126,-0.25966 32.71186,-0.33006 36.44181,-2.83977 8.57968,-5.64804 11.07181,-16.29246 6.01599,-25.95705 -6.5047,-11.70664 -25.47018,-29.23977 -31.79716,-32.61858 -8.33891,-5.60378 -23.69182,-12.8138895 -36.38023,-15.1581795 -38.00321,-7.095429 -77.83386,10.8418695 -99.42311,42.2422995 -2.22693,3.24615 -4.39261,6.30543 -4.82685,6.74326 -0.43424,0.43782 -42.44601,1.13715 -93.38785,1.45755 -50.941839,0.3204 -94.888507,1.09405 -97.756284,1.73365 -10.162079,2.23939 -15.948626,5.32145 -23.459514,12.14373 -7.6341693,7.07169 -10.4782843,11.44052 -14.1585403,21.78162 -4.390751,16.436905 -3.50148405,28.676115 4.00996,41.619555 z m 14.8965343,12.77468 c -6.958378,-4.49365 -7.855858,-6.51052 -11.9582913,-13.50839 -4.9859,-8.48406 -5.095421,-13.7744 -5.278647,-22.97239 -0.275233,-13.859145 3.183948,-24.989705 13.0474093,-34.934605 6.451572,-6.50484 11.661996,-10.01837 20.883306,-12.93557 3.48891,-1.14075 27.813959,-1.15797 98.482487,-1.72675 52.12759,-0.39002 95.09682,-1.16607 95.38958,-0.83712 0,0 3.81288,-4.72009 5.79088,-7.84034 2.4727,-3.86926 6.82656,-7.34875 12.84469,-13.29145 7.75507,-7.69401 12.91116,-11.88032 20.87207,-16.65428 13.49616,-8.1030595 21.06998,-9.2686395 36.6669,-10.9828095 26.22745,-0.0455 36.53893,1.22184 60.19373,14.4137695 7.71069,4.98617 11.41442,9.86263 17.37946,15.23272 7.66048,6.91333 11.42458,14.31978 13.07927,19.28188 2.92694,8.68349 0.87003,11.79106 -7.34927,15.1992 -2.11705,0.88351 -10.88531,3.47074 -31.54882,3.66286 -29.65325,0.24867 -31.71131,-0.31499 -33.07212,1.68257 -0.80408,1.18604 -6.03418,8.85356 -9.74598,14.22235 -3.77463,5.30704 -5.91316,9.47064 -7.0483,11.758385 0.33357,2.46783 3.28911,6.72657 6.61934,12.36473 3.9053,5.4452 8.84019,11.64985 11.14022,14.02883 8.03693,1.94705 3.52314,0.76296 32.14368,1.85186 20.72634,-0.13036 29.50736,-0.70575 31.63546,0.15105 8.51239,3.42722 12.66417,9.27073 9.34666,17.74486 -3.68577,9.47095 -18.28546,26.06772 -29.29079,33.16061 -40.6346,19.27943 -78.30083,23.71118 -112.62958,-4.47838 -6.84062,-5.6132 -10.31661,-8.64846 -15.22705,-15.08185 -3.27312,-4.20604 -7.70757,-9.80088 -8.27614,-10.85395 -1.00911,-1.60973 -13.78506,-2.92259 -97.50238,-2.45821 -91.396432,0.45053 -96.083331,2.45268 -102.777796,0.195 -3.816434,-1.28128 -5.222297,-1.21515 -8.168673,-3.12347 z m 44.515338,-36.02189 c 1.461218,-5.851905 -1.947794,-11.797465 -7.765103,-13.563415 -8.257156,-2.55864 -16.448844,5.20028 -14.334666,13.702405 2.81943,11.41904 19.425471,11.3146 22.099769,-0.13899 z M 49.25826,109.0381 c -2.575748,-2.5322 -2.47065,-2.51042 -2.491183,-5.7424 -0.02051,-3.232 -0.03554,-3.299355 2.507864,-5.863765 2.543408,-2.56441 2.430605,-2.54915 5.676898,-2.56957 3.246294,-0.0204 3.31509,0.14445 5.890838,2.67667 2.575747,2.532215 2.469521,2.33056 2.490041,5.562545 0.02051,3.23201 0.126437,3.38872 -2.416972,5.95314 -2.543407,2.5644 -2.341994,2.2788 -5.588287,2.29922 -3.246294,0.0204 -3.493452,0.21638 -6.069199,-2.31584 z"
     id="path2"
     inkscape:connector-curvature="0"
     sodipodi:nodetypes="cccccccscccccsccccccccsscccccccsccscccccccccccccccscccccccccccccsssssssss"
     style="stroke-width:0.88094759" />
  <text
     xml:space="preserve"
     style="font-style:normal;font-variant:normal;font-weight:normal;font-stretch:normal;font-size:74.17375183px;line-height:1.25;font-family:sans-serif;-inkscape-font-specification:'sans-serif, Normal';font-variant-ligatures:normal;font-variant-caps:normal;font-variant-numeric:normal;font-feature-settings:normal;text-align:start;letter-spacing:0px;word-spacing:0px;writing-mode:lr-tb;text-anchor:start;stroke:none;stroke-width:1.854352"
     x="113.16219"
     y="127.71967"
     class="wrenchfill"
     transform="matrix(0.99989131,0.00819607,0.06201009,1.000617,0,0)"
     id="text7"><tspan
       sodipodi:role="line"
       id="tspan815"
       x="113.16219"
       y="127.71967">GIT</tspan></text>
</svg>
